<svg width="1512" height="982" viewBox="0 0 1512 982" fill="none" xmlns="http://www.w3.org/2000/svg">
<g clip-path="url(#clip0_1_2)">
<rect width="1512" height="982" fill="#C82424"/>
<path d="M24 -23C9.33332 -12.5 -7.90002 20 40.5 66C101 123.5 205 145 216.5 179.5C228 214 236.5 227.5 226.5 278.5C216.5 329.5 210 314.5 198.5 357.5C187 400.5 158.5 424 178.5 455C198.5 486 218.5 462.5 198.5 537C178.5 611.5 158.5 632.5 178.5 665.5C198.5 698.5 234.5 721 216.5 772.5C202.1 813.7 61.1667 824 -7.5 824L-17.5 -38L24 -23ZM1366.5 -54.5C1350.5 -28.1667 1320.5 40 1328.5 102C1338.5 179.5 1356.5 229.5 1350 293.5C1343.5 357.5 1314 397 1314 479.5C1314 562 1350 684 1350 740C1350 796 1302.5 836.5 1269.5 901C1243.1 952.6 1192.5 1027.17 1170.5 1058L1521.5 1049.5V-23L1366.5 -54.5ZM-48 665.5C53.3333 638.667 270 591.4 326 617C396 649 698 783 866 740C1034 697 1288 626 1410 665.5C1507.6 697.1 1573.33 728.333 1594 740L1576 1083L-146 1049.5L-48 665.5Z" stroke="black"/>
<path d="M1170.5 904C1170.5 909.799 1165.8 914.5 1160 914.5C1154.2 914.5 1149.5 909.799 1149.5 904C1149.5 898.201 1154.2 893.5 1160 893.5C1165.8 893.5 1170.5 898.201 1170.5 904ZM1160 915.5C1166.35 915.5 1171.5 910.351 1171.5 904C1171.5 897.649 1166.35 892.5 1160 892.5C1153.65 892.5 1148.5 897.649 1148.5 904C1148.5 910.351 1153.65 915.5 1160 915.5ZM1175.5 904C1175.5 912.56 1168.56 919.5 1160 919.5C1151.44 919.5 1144.5 912.56 1144.5 904C1144.5 895.44 1151.44 888.5 1160 888.5C1168.56 888.5 1175.5 895.44 1175.5 904ZM1160 920.5C1169.11 920.5 1176.5 913.113 1176.5 904C1176.5 894.887 1169.11 887.5 1160 887.5C1150.89 887.5 1143.5 894.887 1143.5 904C1143.5 913.113 1150.89 920.5 1160 920.5ZM1179.5 904C1179.5 914.77 1170.77 923.5 1160 923.5C1149.23 923.5 1140.5 914.77 1140.5 904C1140.5 893.23 1149.23 884.5 1160 884.5C1170.77 884.5 1179.5 893.23 1179.5 904ZM1160 924.5C1171.32 924.5 1180.5 915.322 1180.5 904C1180.5 892.678 1171.32 883.5 1160 883.5C1148.68 883.5 1139.5 892.678 1139.5 904C1139.5 915.322 1148.68 924.5 1160 924.5ZM1183.5 904C1183.5 916.979 1172.98 927.5 1160 927.5C1147.02 927.5 1136.5 916.979 1136.5 904C1136.5 891.021 1147.02 880.5 1160 880.5C1172.98 880.5 1183.5 891.021 1183.5 904ZM1160 928.5C1173.53 928.5 1184.5 917.531 1184.5 904C1184.5 890.469 1173.53 879.5 1160 879.5C1146.47 879.5 1135.5 890.469 1135.5 904C1135.5 917.531 1146.47 928.5 1160 928.5ZM1187.5 904C1187.5 919.188 1175.19 931.5 1160 931.5C1144.81 931.5 1132.5 919.188 1132.5 904C1132.5 888.812 1144.81 876.5 1160 876.5C1175.19 876.5 1187.5 888.812 1187.5 904ZM1160 932.5C1175.74 932.5 1188.5 919.74 1188.5 904C1188.5 888.26 1175.74 875.5 1160 875.5C1144.26 875.5 1131.5 888.26 1131.5 904C1131.5 919.74 1144.26 932.5 1160 932.5ZM1191.5 904C1191.5 921.397 1177.4 935.5 1160 935.5C1142.6 935.5 1128.5 921.397 1128.5 904C1128.5 886.603 1142.6 872.5 1160 872.5C1177.4 872.5 1191.5 886.603 1191.5 904Z" stroke="black"/>
<path d="M1222.06 818C1222.06 827.976 1213.98 836.062 1204 836.062C1194.02 836.062 1185.94 827.976 1185.94 818C1185.94 808.024 1194.02 799.938 1204 799.938C1213.98 799.938 1222.06 808.024 1222.06 818ZM1204 837.062C1214.53 837.062 1223.06 828.528 1223.06 818C1223.06 807.472 1214.53 798.938 1204 798.938C1193.47 798.938 1184.94 807.472 1184.94 818C1184.94 828.528 1193.47 837.062 1204 837.062ZM1230.5 818C1230.5 832.636 1218.64 844.5 1204 844.5C1189.36 844.5 1177.5 832.636 1177.5 818C1177.5 803.364 1189.36 791.5 1204 791.5C1218.64 791.5 1230.5 803.364 1230.5 818ZM1204 845.5C1219.19 845.5 1231.5 833.188 1231.5 818C1231.5 802.812 1219.19 790.5 1204 790.5C1188.81 790.5 1176.5 802.812 1176.5 818C1176.5 833.188 1188.81 845.5 1204 845.5ZM1237.25 818C1237.25 836.363 1222.36 851.25 1204 851.25C1185.64 851.25 1170.75 836.363 1170.75 818C1170.75 799.637 1185.64 784.75 1204 784.75C1222.36 784.75 1237.25 799.637 1237.25 818ZM1204 852.25C1222.92 852.25 1238.25 836.916 1238.25 818C1238.25 799.084 1222.92 783.75 1204 783.75C1185.08 783.75 1169.75 799.084 1169.75 818C1169.75 836.916 1185.08 852.25 1204 852.25ZM1244 818C1244 840.091 1226.09 858 1204 858C1181.91 858 1164 840.091 1164 818C1164 795.909 1181.91 778 1204 778C1226.09 778 1244 795.909 1244 818ZM1204 859C1226.64 859 1245 840.644 1245 818C1245 795.356 1226.64 777 1204 777C1181.36 777 1163 795.356 1163 818C1163 840.644 1181.36 859 1204 859ZM1250.75 818C1250.75 843.819 1229.82 864.75 1204 864.75C1178.18 864.75 1157.25 843.819 1157.25 818C1157.25 792.181 1178.18 771.25 1204 771.25C1229.82 771.25 1250.75 792.181 1250.75 818ZM1204 865.75C1230.37 865.75 1251.75 844.372 1251.75 818C1251.75 791.628 1230.37 770.25 1204 770.25C1177.63 770.25 1156.25 791.628 1156.25 818C1156.25 844.372 1177.63 865.75 1204 865.75ZM1257.5 818C1257.5 847.547 1233.55 871.5 1204 871.5C1174.45 871.5 1150.5 847.547 1150.5 818C1150.5 788.453 1174.45 764.5 1204 764.5C1233.55 764.5 1257.5 788.453 1257.5 818Z" stroke="black"/>
</g>
<defs>
<clipPath id="clip0_1_2">
<rect width="1512" height="982" fill="white"/>
</clipPath>
</defs>
</svg>
